HIERARCHY
ROOT hip
{
	OFFSET 0.000000 0.000000 0.000000 
	CHANNELS 6 Xposition Yposition Zposition Xrotation Zrotation Yrotation
	JOINT abdomen
	{
		OFFSET 0.000000 3.402643 0.000000 
		CHANNELS 3 Xrotation Zrotation Yrotation
		JOINT chest
		{
			OFFSET 0.000000 8.438565 -0.680529 
			CHANNELS 3 Xrotation Zrotation Yrotation
			JOINT neck
			{
				OFFSET 0.000000 10.207942 -0.272212 
				CHANNELS 3 Xrotation Zrotation Yrotation
				JOINT head
				{
					OFFSET 0.000000 3.130431 0.000000 
					CHANNELS 3 Xrotation Zrotation Yrotation
					End Site
					{
						OFFSET 0.000000 3.130435 0.000000 
					}
				}
			}
			JOINT lCollar
			{
				OFFSET 3.470700 6.669187 -0.816635 
				CHANNELS 3 Yrotation Zrotation Xrotation
				JOINT lShldr
				{
					OFFSET 3.198488 0.000000 0.000000 
					CHANNELS 3 Zrotation Yrotation Xrotation
					JOINT lForeArm
					{
						OFFSET 10.139888 0.000000 0.000000 
						CHANNELS 3 Yrotation Zrotation Xrotation
						JOINT lHand
						{
							OFFSET 8.370511 0.000000 0.000000 
							CHANNELS 3 Zrotation Yrotation Xrotation
							End Site
							{
								OFFSET 4.083176 0.000000 0.000000 
							}
						}
					}
				}
			}
			JOINT rCollar
			{
				OFFSET -3.470700 6.669187 -0.816635 
				CHANNELS 3 Yrotation Zrotation Xrotation
				JOINT rShldr
				{
					OFFSET -3.198488 0.000000 0.000000 
					CHANNELS 3 Zrotation Yrotation Xrotation
					JOINT rForeArm
					{
						OFFSET -10.139888 0.000000 0.000000 
						CHANNELS 3 Yrotation Zrotation Xrotation
						JOINT rHand
						{
							OFFSET -8.370511 0.000000 0.000000 
							CHANNELS 3 Zrotation Yrotation Xrotation
							End Site
							{
								OFFSET -4.083176 0.000000 0.000000 
							}
						}
					}
				}
			}
		}
	}
	JOINT lThigh
	{
		OFFSET 5.308129 -1.633274 1.361059 
		CHANNELS 3 Xrotation Zrotation Yrotation
		JOINT lShin
		{
			OFFSET -2.041588 -20.007561 0.000000 
			CHANNELS 3 Xrotation Zrotation Yrotation
			JOINT lFoot
			{
				OFFSET 0.000000 -19.190928 -1.224953 
				CHANNELS 3 Xrotation Yrotation Zrotation
				End Site
				{
					OFFSET 0.000000 -2.449906 4.627600 
				}
			}
		}
	}
	JOINT rThigh
	{
		OFFSET -5.308129 -1.633274 1.361059 
		CHANNELS 3 Xrotation Zrotation Yrotation
		JOINT rShin
		{
			OFFSET 2.041588 -20.007561 0.000000 
			CHANNELS 3 Xrotation Zrotation Yrotation
			JOINT rFoot
			{
				OFFSET 0.000000 -19.190928 -1.224953 
				CHANNELS 3 Xrotation Yrotation Zrotation
				End Site
				{
					OFFSET 0.000000 -2.449906 4.627600 
				}
			}
		}
	}
}
MOTION
Frames: 10
Frame Time: 0.033333
1.922635 49.867317 0.774729 -0.535464 0.400308 -1.162081 0.000000 0.000000 0.000000 -0.867596 0.283199 0.312544 0.859375 0.097656 0.000000 5.593888 1.445266 -0.459085 -1.969141 -3.751411 -0.244114 -47.996311 7.943326 1.417907 -38.442177 -2.599011 24.695049 -11.104342 -3.437387 -2.734979 4.265242 5.508905 -0.381809 44.100353 -23.217232 -8.737033 38.755638 2.631189 28.276476 6.455390 6.353288 -2.819646 5.013186 7.454318 6.335621 0.536310 -2.609483 12.611055 -2.823158 0.166183 -6.489199 5.875384 -9.858658 -8.787452 0.088376 2.864688 -5.670213 -3.287549 -0.241876 7.533530 
1.880489 49.862171 0.753882 -0.603141 0.400322 -1.064427 0.000000 0.000000 0.000000 -0.828550 0.332028 0.263724 0.878935 0.166016 0.009794 6.125238 1.269509 -0.341713 -2.026072 -3.820556 -0.214884 -46.862839 7.689136 3.799698 -38.201000 -3.508368 24.703962 -12.017620 -3.595167 -2.655463 4.314146 5.665563 -0.372100 44.190018 -23.314215 -7.983122 38.083675 2.858791 28.777267 5.444064 6.720109 -2.879462 5.023254 7.502555 6.419975 0.556054 -2.648971 12.522305 -2.775248 0.170438 -6.497050 5.924439 -9.801424 -8.761658 0.146322 2.887567 -5.579440 -3.339587 -0.231907 7.496619 
1.848413 49.864807 0.723548 -0.573450 0.449163 -0.898410 0.000000 0.000000 0.000000 -0.828853 0.312498 0.224659 0.995811 0.332031 -0.048827 5.963045 0.957024 -0.224578 -1.975295 -3.459751 -0.205173 -45.836655 7.275389 5.255970 -38.140106 -3.917490 26.119501 -13.695911 -4.705223 -2.414152 4.124655 5.493091 -0.343092 44.164787 -23.106438 -7.266818 37.318497 3.194868 27.723030 5.465672 6.682279 -2.881148 4.938594 7.497335 6.340193 0.536407 -2.610908 12.445076 -2.704817 0.155212 -6.533434 5.936030 -9.794238 -8.790440 0.137124 2.854154 -5.832934 -3.324105 -0.246439 7.458573 
1.833423 49.855644 0.702309 -0.454741 0.410119 -0.771465 0.000000 0.000000 0.000000 -0.985096 0.361326 0.195370 1.209814 0.439452 -0.146480 5.716877 1.093735 -0.302679 -2.282538 -2.828234 -0.341594 -45.159988 7.258505 5.699522 -37.711922 -4.085175 26.203474 -12.976298 -4.399245 -2.497652 4.156631 5.296831 -0.489439 44.614681 -22.891783 -8.858747 35.813511 2.879152 29.657600 5.647390 7.659045 -2.805946 4.781269 7.573935 6.349111 0.487346 -2.642142 12.272671 -2.633960 0.154721 -6.521657 5.778281 -9.743183 -8.771602 0.165716 2.898163 -6.203262 -3.264384 -0.229522 7.421936 
1.802976 49.879143 0.685383 -0.463204 0.380836 -0.634752 0.000000 0.000000 0.000000 -0.996240 0.429687 -0.019531 1.550757 0.351557 -0.322260 5.407715 1.523389 -0.459082 -2.409958 -2.748533 -0.361064 -44.150623 7.389143 5.433708 -37.354580 -4.080977 25.180391 -10.974890 -3.471462 -2.745195 3.888548 4.781514 -0.489544 44.362629 -22.229053 -8.473179 34.166801 3.054838 30.211876 3.962316 8.311158 -2.924571 4.781799 7.672068 6.409172 0.574496 -2.683331 11.847694 -2.726475 0.170668 -6.538108 5.825762 -9.623387 -8.679081 0.098005 2.875683 -6.236095 -3.291090 -0.229219 7.369911 
1.781719 49.868969 0.652484 -0.394505 0.361307 -0.615222 0.000000 0.000000 0.000000 -1.093535 0.419922 0.029368 1.870339 0.488259 -0.546855 5.328786 1.757665 -0.742437 -2.358544 -1.964794 -0.429408 -44.107796 7.265104 4.831529 -36.619480 -3.923520 24.897055 -7.798081 -3.149541 -2.956041 3.853388 4.512938 -0.567230 44.202621 -21.911667 -8.352098 32.355988 3.232162 30.084757 1.899305 8.110381 -3.146861 4.706419 7.754204 6.477135 0.380496 -2.741790 11.919167 -2.516839 0.155274 -6.497997 5.700308 -9.547697 -8.588469 0.244340 2.894659 -5.816887 -3.476913 -0.256376 7.267832 
1.771485 49.873131 0.603962 -0.190101 0.351533 -0.742174 0.000000 0.000000 0.000000 -1.171788 0.507813 0.009852 1.897339 0.537064 -0.742155 5.246915 1.728312 -0.879095 -2.273664 -2.080314 -0.487933 -43.375313 7.199797 3.777595 -36.210838 -3.758340 24.159470 -4.886103 -2.831494 -3.146065 3.871032 4.732828 -0.636012 43.895939 -21.526392 -9.603759 31.372366 2.788416 32.414486 0.458918 6.502833 -3.324927 4.516435 7.825556 6.574289 0.302023 -2.914364 11.926060 -2.464368 0.128199 -6.402565 5.369063 -9.519500 -8.450870 0.283332 2.854460 -5.862661 -3.421942 -0.215533 7.251835 
1.715454 49.879944 0.558194 0.055431 0.195287 -0.927729 0.000000 0.000000 0.000000 -1.376021 0.683593 0.078236 2.053501 0.497997 -0.810516 5.514039 2.099177 -1.162760 -2.151845 -1.967386 -0.663879 -43.336548 7.222500 2.678690 -35.336212 -3.588184 23.550352 -2.515632 -2.484916 -3.290003 4.034595 4.785850 -0.831688 43.622272 -21.469080 -7.978997 30.724516 3.696352 28.186525 -2.875642 4.482024 -3.596557 4.314678 8.151643 6.776111 0.320578 -3.064209 11.731231 -2.472284 0.148704 -6.426019 4.995902 -9.243070 -8.087459 0.293225 2.764434 -6.007295 -3.333886 -0.218813 7.195703 
1.629207 49.899055 0.474688 0.360354 0.048818 -1.142578 0.000000 0.000000 0.000000 -1.490478 0.859367 0.244260 2.053306 0.488228 -0.849578 5.955397 2.596714 -1.544481 -1.967766 -1.799845 -0.771268 -44.088428 6.993124 0.905367 -34.537613 -3.179766 23.134169 -1.238915 -2.049142 -3.353210 4.330389 5.366496 -0.978699 45.197041 -21.457806 -10.398671 31.043257 3.324383 26.773540 -4.915706 3.384131 -3.694580 4.020284 8.491107 6.988067 0.281545 -3.250058 11.570002 -2.405982 0.131283 -6.431708 4.499050 -8.980862 -7.785177 0.283689 2.733511 -6.144192 -3.195902 -0.230534 7.082330 
1.496892 49.916145 0.367893 0.771002 0.019525 -1.416015 0.000000 0.000000 0.000000 -1.673029 0.976540 0.390735 2.161885 0.419878 -0.830056 6.096026 2.772117 -1.769288 -2.055122 -1.997210 -0.956866 -45.021568 7.141127 -0.753585 -34.149857 -2.672281 23.659887 -0.645539 -0.165837 -3.426078 4.742439 5.879335 -1.194191 45.742493 -21.830591 -9.790040 31.706274 3.898954 23.349138 -6.925191 3.233086 -3.808761 3.569958 8.743146 7.138678 0.174177 -3.386384 11.832807 -2.159558 0.126823 -6.449530 3.816890 -8.757525 -7.428485 0.361380 2.700217 -6.275595 -3.114011 -0.202884 6.849288 
